# xmcd CD database file generated by Grip 3.3.0
# 
# Track frame offsets:
#       150
#       13645
#       27222
#       37425
#       50332
#       66565
#       84047
#       96235
#       107325
#       113040
#       127212
#       136600
#       153625
#       167125
#       173137
#       182032
#       197575
# 
# Disc length: 2790 seconds
# 
# Revision: 1
# Processed by: cddbd v1.5.1PL0 Copyright (c) Steve Scherf et al.
# Submitted via: Grip 3.3.0
# 
DISCID=e30ae411
DTITLE=Yellowjackets - Catch The buzz
DYEAR=1900
DGENRE=Acapella
TTITLE0=Zombie Jamboree
TTITLE1=Naturally
TTITLE2=Ah Woe, Ah Me
TTITLE3=Only One
TTITLE4=Just A Gigolo
TTITLE5=Hard Day's Night
TTITLE6=Blackbird
TTITLE7=Jacob's Ladder
TTITLE8=Twinkle, Twinkle, Little Star
TTITLE9=Seven Bridges Road
TTITLE10=Don't Be Cruel
TTITLE11=One Tin Soldier
TTITLE12=Take It Easy
TTITLE13=Slap That BAss
TTITLE14=Blue Moon
TTITLE15=Walk Down That Lonesome Road
TTITLE16=Kiss The Girl
EXTD=
EXTT0=
EXTT1=
EXTT2=
EXTT3=
EXTT4=
EXTT5=
EXTT6=
EXTT7=
EXTT8=
EXTT9=
EXTT10=
EXTT11=
EXTT12=
EXTT13=
EXTT14=
EXTT15=
EXTT16=
PLAYORDER=
